<svg width="44" height="37" viewBox="0 0 44 37" fill="none" xmlns="http://www.w3.org/2000/svg">
<path d="M11.2139 0.946533L17.7324 6.07153L18.1768 6.42114L17.7773 6.81958C15.7071 8.88369 14.1485 10.8087 13.0898 12.595C12.1431 14.1923 11.4945 15.8156 11.1367 17.4651H19.0518V35.8401H0.5V23.9651C0.5 19.6549 1.2634 15.6718 2.7959 12.0217C4.3313 8.36475 6.92304 4.68855 10.5479 0.990479L10.8613 0.670166L11.2139 0.946533ZM35.6611 0.946533L42.1807 6.07153L42.624 6.42114L42.2246 6.81958C40.1544 8.88362 38.5958 10.8087 37.5371 12.595C36.5904 14.1923 35.9418 15.8156 35.584 17.4651H43.5V35.8401H24.9482V23.9651C24.9482 19.655 25.7107 15.6718 27.2432 12.0217C28.7785 8.36482 31.3704 4.68848 34.9951 0.990479L35.3086 0.670166L35.6611 0.946533Z" fill="#F5F5F5" stroke="#DEDCDA"/>
</svg>
